<svg width="32" height="32" viewBox="0 0 32 32" fill="none" xmlns="http://www.w3.org/2000/svg">
<rect width="32" height="32" fill="#6065EE"/>
<path d="M3.70928 23.8872C3.60556 23.8872 3.52148 23.8032 3.52148 23.6995V21.7487C3.52148 21.6449 3.60556 21.5609 3.70928 21.5609H4.35202C4.82052 21.5609 5.15415 21.4684 5.35291 21.2834C5.55167 21.0984 5.65105 20.7854 5.65105 20.3443V12.3615C5.65105 12.2578 5.73513 12.1737 5.83884 12.1737H8.18911C8.29282 12.1737 8.3769 12.2578 8.3769 12.3615V20.3443C8.3769 21.6249 8.05037 22.5355 7.3973 23.0762C6.75843 23.6169 5.8853 23.8872 4.77793 23.8872H3.70928Z" fill="#FBFBFD"/>
<path d="M9.68265 22.7598C9.57893 22.7598 9.49485 22.6758 9.49485 22.572V12.3615C9.49485 12.2578 9.57893 12.1737 9.68265 12.1737H12.0329C12.1366 12.1737 12.2207 12.2578 12.2207 12.3615V22.572C12.2207 22.6758 12.1366 22.7598 12.0329 22.7598H9.68265Z" fill="#FBFBFD"/>
<path d="M13.1476 22.7598C12.9943 22.7598 12.9056 22.5861 12.9955 22.4619L16.613 17.4668L12.9955 12.4716C12.9056 12.3475 12.9943 12.1737 13.1476 12.1737H15.6006C15.6613 12.1737 15.7182 12.203 15.7534 12.2523L18.3805 15.9301L20.9863 12.2529C21.0216 12.2032 21.0787 12.1737 21.1396 12.1737H23.6122C23.7657 12.1737 23.8544 12.3479 23.764 12.472L20.1268 17.4668L23.764 22.4615C23.8544 22.5856 23.7657 22.7598 23.6122 22.7598H21.1396C21.0787 22.7598 21.0216 22.7303 20.9863 22.6806L18.3805 19.0035L15.7534 22.6812C15.7182 22.7306 15.6613 22.7598 15.6006 22.7598H13.1476Z" fill="#FBFBFD"/>
<path d="M24.6453 22.7598C24.5416 22.7598 24.4575 22.6758 24.4575 22.572V12.3615C24.4575 12.2578 24.5416 12.1737 24.6453 12.1737H26.9956C27.0993 12.1737 27.1833 12.2578 27.1833 12.3615V22.572C27.1833 22.6758 27.0993 22.7598 26.9956 22.7598H24.6453Z" fill="#FBFBFD"/>
<path d="M8.39304 9.50764C8.39304 10.2781 7.76988 10.9026 7.00117 10.9026C6.23246 10.9026 5.6093 10.2781 5.6093 9.50764C5.6093 8.73722 6.23246 8.11267 7.00117 8.11267C7.76988 8.11267 8.39304 8.73722 8.39304 9.50764Z" fill="#FBFBFD"/>
<path d="M12.2207 9.50764C12.2207 10.2781 11.5975 10.9026 10.8288 10.9026C10.0601 10.9026 9.43695 10.2781 9.43695 9.50764C9.43695 8.73722 10.0601 8.11267 10.8288 8.11267C11.5975 8.11267 12.2207 8.73722 12.2207 9.50764Z" fill="#FBFBFD"/>
<path d="M27.1833 9.50764C27.1833 10.2781 26.5602 10.9026 25.7915 10.9026C25.0228 10.9026 24.3996 10.2781 24.3996 9.50764C24.3996 8.73722 25.0228 8.11267 25.7915 8.11267C26.5602 8.11267 27.1833 8.73722 27.1833 9.50764Z" fill="#FBFBFD"/>
</svg>
